<?xml version="1.0" encoding="UTF-8" standalone="no"?>
<!DOCTYPE svg PUBLIC "-//W3C//DTD SVG 1.1//EN" "http://www.w3.org/Graphics/SVG/1.1/DTD/svg11.dtd">
<svg width="100%" height="100%" viewBox="0 0 626 396" version="1.1" xmlns="http://www.w3.org/2000/svg" xmlns:xlink="http://www.w3.org/1999/xlink" xml:space="preserve" xmlns:serif="http://www.serif.com/" style="fill-rule:evenodd;clip-rule:evenodd;stroke-linejoin:round;stroke-miterlimit:2;">
    <g transform="matrix(1,0,0,1,-1511.81,-1363.77)">
        <path d="M1755.21,1446.04C1772.16,1398.13 1817.88,1363.77 1871.56,1363.77C1935.36,1363.77 1987.9,1412.29 1994.29,1474.41C2009.32,1457.35 2031.32,1446.58 2055.82,1446.58C2101.06,1446.58 2137.8,1483.31 2137.8,1528.55C2137.8,1565.47 2113.34,1596.72 2079.76,1606.97C2087.28,1621.36 2091.53,1637.71 2091.53,1655.04C2091.53,1712.43 2044.94,1759.02 1987.55,1759.02L1574.41,1759.02L1574.01,1759.02C1539.64,1758.8 1511.81,1730.84 1511.81,1696.42C1511.81,1661.88 1539.86,1633.83 1574.41,1633.83C1584.27,1633.83 1593.61,1636.11 1601.91,1640.18C1598.92,1628.12 1597.34,1615.51 1597.34,1602.53C1597.34,1516.15 1667.46,1446.03 1753.84,1446.03C1754.3,1446.03 1754.76,1446.03 1755.21,1446.04ZM1987.55,1738.19C2033.44,1738.19 2070.7,1700.93 2070.7,1655.04C2070.7,1609.15 2033.44,1571.9 1987.55,1571.9C1962.7,1571.9 1940.38,1582.83 1925.14,1600.14C1919.67,1606.35 1911.04,1608.73 1903.15,1606.21C1895.27,1603.68 1889.63,1596.73 1888.78,1588.5C1881.76,1520.2 1823.97,1466.86 1753.84,1466.86C1678.96,1466.86 1618.17,1527.65 1618.17,1602.53C1618.17,1613.78 1619.55,1624.72 1622.13,1635.18C1624.08,1643.04 1621.29,1651.32 1614.99,1656.4C1608.68,1661.48 1600.01,1662.45 1592.74,1658.89C1587.2,1656.17 1580.98,1654.66 1574.41,1654.66C1551.36,1654.66 1532.64,1673.37 1532.64,1696.42C1532.64,1719.38 1551.21,1738.04 1574.13,1738.19L1574.41,1738.19L1987.55,1738.19ZM2067.49,1588.58C2095.66,1583.13 2116.96,1558.31 2116.96,1528.55C2116.96,1494.81 2089.57,1467.41 2055.82,1467.41C2037.55,1467.41 2021.13,1475.45 2009.92,1488.18C2004.45,1494.39 1995.82,1496.77 1987.94,1494.25C1980.06,1491.73 1974.41,1484.77 1973.57,1476.54C1968.26,1424.91 1924.58,1384.6 1871.56,1384.6C1828.94,1384.6 1792.35,1410.67 1776.88,1447.72C1847.11,1458.11 1902.19,1515.2 1909.51,1586.37C1928.57,1564.73 1956.48,1551.07 1987.55,1551.07C2019.67,1551.07 2048.41,1565.66 2067.49,1588.58Z"/>
    </g>
</svg>
