<?xml version="1.0" encoding="UTF-8" standalone="no"?>
<!DOCTYPE svg PUBLIC "-//W3C//DTD SVG 1.1//EN" "http://www.w3.org/Graphics/SVG/1.1/DTD/svg11.dtd">
<svg width="100%" height="100%" viewBox="0 0 397 397" version="1.1" xmlns="http://www.w3.org/2000/svg" xmlns:xlink="http://www.w3.org/1999/xlink" xml:space="preserve" xmlns:serif="http://www.serif.com/" style="fill-rule:evenodd;clip-rule:evenodd;stroke-linejoin:round;stroke-miterlimit:2;">
    <g transform="matrix(1,0,0,1,-6099.43,-1443.52)">
        <g transform="matrix(1,0,0,1,5252.29,1222.36)">
            <path d="M1045.35,317.717C1101.46,317.717 1147.01,363.265 1147.01,419.368C1147.01,475.472 1101.46,521.02 1045.35,521.02C989.25,521.02 943.701,475.472 943.701,419.368C943.701,363.265 989.25,317.717 1045.35,317.717ZM1045.35,338.55C1089.96,338.55 1126.17,374.763 1126.17,419.368C1126.17,463.974 1089.96,500.187 1045.35,500.187C1000.75,500.187 964.534,463.974 964.534,419.368C964.534,374.763 1000.75,338.55 1045.35,338.55Z"/>
        </g>
        <g transform="matrix(1,0,0,1,5228.74,1198.82)">
            <path d="M1079.31,314.717L1079.31,255.118C1079.31,249.369 1074.65,244.701 1068.9,244.701C1063.15,244.701 1058.48,249.369 1058.48,255.118L1058.48,314.717C1058.48,320.466 1063.15,325.133 1068.9,325.133C1074.65,325.133 1079.31,320.466 1079.31,314.717Z"/>
        </g>
        <g transform="matrix(1,0,0,1,5228.74,1511.81)">
            <path d="M1079.31,317.717L1079.31,258.118C1079.31,252.369 1074.65,247.701 1068.9,247.701C1063.15,247.701 1058.48,252.369 1058.48,258.118L1058.48,317.717C1058.48,323.466 1063.15,328.133 1068.9,328.133C1074.65,328.133 1079.31,323.466 1079.31,317.717Z"/>
        </g>
        <g transform="matrix(6.12323e-17,1,-1,6.12323e-17,6740.55,572.835)">
            <path d="M1058.48,255.118C1058.48,249.369 1063.15,244.701 1068.9,244.701C1074.65,244.701 1079.31,249.369 1079.31,255.118L1079.31,314.717C1079.31,320.466 1074.65,325.133 1068.9,325.133C1063.15,325.133 1058.48,320.466 1058.48,314.717L1058.48,255.118Z"/>
        </g>
        <g transform="matrix(6.12323e-17,1,-1,6.12323e-17,6427.56,572.835)">
            <path d="M1058.48,258.118C1058.48,252.369 1063.15,247.701 1068.9,247.701C1074.65,247.701 1079.31,252.369 1079.31,258.118L1079.31,317.717C1079.31,323.466 1074.65,328.133 1068.9,328.133C1063.15,328.133 1058.48,323.466 1058.48,317.717L1058.48,258.118Z"/>
        </g>
        <g transform="matrix(0.707107,-0.707107,0.707107,0.707107,5228.63,2084.37)">
            <path d="M1079.31,314.717L1079.31,255.118C1079.31,249.369 1074.65,244.701 1068.9,244.701C1063.15,244.701 1058.48,249.369 1058.48,255.118L1058.48,314.717C1058.48,320.466 1063.15,325.133 1068.9,325.133C1074.65,325.133 1079.31,320.466 1079.31,314.717Z"/>
        </g>
        <g transform="matrix(0.707107,-0.707107,0.707107,0.707107,5449.94,2305.69)">
            <path d="M1079.31,317.717L1079.31,258.118C1079.31,252.369 1074.65,247.701 1068.9,247.701C1063.15,247.701 1058.48,252.369 1058.48,258.118L1058.48,317.717C1058.48,323.466 1063.15,328.133 1068.9,328.133C1074.65,328.133 1079.31,323.466 1079.31,317.717Z"/>
        </g>
        <g transform="matrix(0.707107,0.707107,-0.707107,0.707107,5855,572.72)">
            <path d="M1079.31,314.717L1079.31,255.118C1079.31,249.369 1074.65,244.701 1068.9,244.701C1063.15,244.701 1058.48,249.369 1058.48,255.118L1058.48,314.717C1058.48,320.466 1063.15,325.133 1068.9,325.133C1074.65,325.133 1079.31,320.466 1079.31,314.717Z"/>
        </g>
        <g transform="matrix(0.707107,0.707107,-0.707107,0.707107,5633.68,794.039)">
            <path d="M1079.31,317.717L1079.31,258.118C1079.31,252.369 1074.65,247.701 1068.9,247.701C1063.15,247.701 1058.48,252.369 1058.48,258.118L1058.48,317.717C1058.48,323.466 1063.15,328.133 1068.9,328.133C1074.65,328.133 1079.31,323.466 1079.31,317.717Z"/>
        </g>
    </g>
</svg>
