<?xml version="1.0" encoding="UTF-8" standalone="no"?>
<!DOCTYPE svg PUBLIC "-//W3C//DTD SVG 1.1//EN" "http://www.w3.org/Graphics/SVG/1.1/DTD/svg11.dtd">
<svg width="100%" height="100%" viewBox="0 0 522 320" version="1.1" xmlns="http://www.w3.org/2000/svg" xmlns:xlink="http://www.w3.org/1999/xlink" xml:space="preserve" xmlns:serif="http://www.serif.com/" style="fill-rule:evenodd;clip-rule:evenodd;stroke-linejoin:round;stroke-miterlimit:2;">
    <g transform="matrix(1,0,0,1,-5343.52,-1469.91)">
        <g transform="matrix(7.01621e-16,2.48742,-6.30202,8.67595e-16,7399.89,-1178.47)">
            <path d="M1064.71,255.118C1064.71,254.206 1066.59,253.465 1068.9,253.465C1071.21,253.465 1073.09,254.206 1073.09,255.118L1073.09,314.717C1073.09,315.629 1071.21,316.369 1068.9,316.369C1066.59,316.369 1064.71,315.629 1064.71,314.717L1064.71,255.118Z"/>
        </g>
        <g transform="matrix(7.01621e-16,2.48742,-6.30202,8.67595e-16,7462.48,-1119.87)">
            <path d="M1064.71,255.118C1064.71,254.206 1066.59,253.465 1068.9,253.465C1071.21,253.465 1073.09,254.206 1073.09,255.118L1073.09,314.717C1073.09,315.629 1071.21,316.369 1068.9,316.369C1066.59,316.369 1064.71,315.629 1064.71,314.717L1064.71,255.118Z"/>
        </g>
        <g transform="matrix(7.01621e-16,2.48742,-6.30202,8.67595e-16,7462.48,-999.998)">
            <path d="M1064.71,255.118C1064.71,254.206 1066.59,253.465 1068.9,253.465C1071.21,253.465 1073.09,254.206 1073.09,255.118L1073.09,314.717C1073.09,315.629 1071.21,316.369 1068.9,316.369C1066.59,316.369 1064.71,315.629 1064.71,314.717L1064.71,255.118Z"/>
        </g>
        <g transform="matrix(7.01621e-16,2.48742,-6.30202,8.67595e-16,7399.89,-940.591)">
            <path d="M1064.71,255.118C1064.71,254.206 1066.59,253.465 1068.9,253.465C1071.21,253.465 1073.09,254.206 1073.09,255.118L1073.09,314.717C1073.09,315.629 1071.21,316.369 1068.9,316.369C1066.59,316.369 1064.71,315.629 1064.71,314.717L1064.71,255.118Z"/>
        </g>
        <g transform="matrix(7.02074e-16,2.48742,-5.35236,5.98578e-16,7038.41,-1057.24)">
            <path d="M1064.71,255.118C1064.71,254.044 1066.59,253.172 1068.9,253.172C1071.21,253.172 1073.09,254.044 1073.09,255.118L1073.09,314.717C1073.09,315.791 1071.21,316.663 1068.9,316.663C1066.59,316.663 1064.71,315.791 1064.71,314.717L1064.71,255.118Z"/>
        </g>
        <g transform="matrix(7.04078e-16,2.48742,-1.15101,-5.91567e-16,6081.77,-1059.24)">
            <path d="M1064.71,255.118C1064.71,250.123 1066.59,246.068 1068.9,246.068C1071.21,246.068 1073.09,250.123 1073.09,255.118L1073.09,314.717C1073.09,319.711 1071.21,323.767 1068.9,323.767C1066.59,323.767 1064.71,319.711 1064.71,314.717L1064.71,255.118Z"/>
        </g>
        <g transform="matrix(7.04078e-16,2.48742,-1.15101,-5.91567e-16,5932.27,-879.864)">
            <path d="M1064.71,255.118C1064.71,250.123 1066.59,246.068 1068.9,246.068C1071.21,246.068 1073.09,250.123 1073.09,255.118L1073.09,314.717C1073.09,319.711 1071.21,323.767 1068.9,323.767C1066.59,323.767 1064.71,319.711 1064.71,314.717L1064.71,255.118Z"/>
        </g>
    </g>
</svg>
