<?xml version="1.0" encoding="UTF-8" standalone="no"?>
<!DOCTYPE svg PUBLIC "-//W3C//DTD SVG 1.1//EN" "http://www.w3.org/Graphics/SVG/1.1/DTD/svg11.dtd">
<svg width="100%" height="100%" viewBox="0 0 591 570" version="1.1" xmlns="http://www.w3.org/2000/svg" xmlns:xlink="http://www.w3.org/1999/xlink" xml:space="preserve" xmlns:serif="http://www.serif.com/" style="fill-rule:evenodd;clip-rule:evenodd;stroke-linejoin:round;stroke-miterlimit:2;">
    <g transform="matrix(1,0,0,1,-3023.62,-1287.49)">
        <g transform="matrix(0.830097,0,0,0.830097,2544.42,1086.14)">
            <path d="M1081.45,314.717L1081.45,255.118C1081.45,248.192 1075.82,242.569 1068.9,242.569C1061.97,242.569 1056.35,248.192 1056.35,255.118L1056.35,314.717C1056.35,321.642 1061.97,327.265 1068.9,327.265C1075.82,327.265 1081.45,321.642 1081.45,314.717Z"/>
        </g>
        <g transform="matrix(0,0.830097,-0.830097,0,3815.37,579.508)">
            <path d="M1056.35,255.118C1056.35,248.192 1061.97,242.569 1068.9,242.569C1075.82,242.569 1081.45,248.192 1081.45,255.118L1081.45,314.717C1081.45,321.642 1075.82,327.265 1068.9,327.265C1061.97,327.265 1056.35,321.642 1056.35,314.717L1056.35,255.118Z"/>
        </g>
        <g transform="matrix(0.586967,-0.586967,0.586967,0.586967,2533.22,1823.52)">
            <path d="M1081.45,314.717L1081.45,255.118C1081.45,248.192 1075.82,242.569 1068.9,242.569C1061.97,242.569 1056.35,248.192 1056.35,255.118L1056.35,314.717C1056.35,321.642 1061.97,327.265 1068.9,327.265C1075.82,327.265 1081.45,321.642 1081.45,314.717Z"/>
        </g>
        <g transform="matrix(0.586967,0.586967,-0.586967,0.586967,3073.68,566.587)">
            <path d="M1081.45,314.717L1081.45,255.118C1081.45,248.192 1075.82,242.569 1068.9,242.569C1061.97,242.569 1056.35,248.192 1056.35,255.118L1056.35,314.717C1056.35,321.642 1061.97,327.265 1068.9,327.265C1075.82,327.265 1081.45,321.642 1081.45,314.717Z"/>
        </g>
        <path d="M3346.64,1425.93C3351.11,1416.84 3357.12,1408.32 3364.68,1400.76C3401.68,1363.77 3461.75,1363.77 3498.74,1400.76C3528.22,1430.25 3534.21,1474.38 3516.7,1509.82C3565.85,1518.09 3603.34,1560.88 3603.34,1612.35C3603.34,1669.74 3556.75,1716.33 3499.36,1716.33L3086.22,1716.33L3085.82,1716.33C3051.45,1716.11 3023.62,1688.15 3023.62,1653.73C3023.62,1619.18 3051.67,1591.13 3086.22,1591.13C3096.08,1591.13 3105.42,1593.42 3113.72,1597.49C3110.74,1585.43 3109.15,1572.82 3109.15,1559.84C3109.15,1473.46 3179.28,1403.34 3265.65,1403.34C3295.29,1403.34 3323.01,1411.6 3346.64,1425.93ZM3499.36,1695.5C3545.25,1695.5 3582.51,1658.24 3582.51,1612.35C3582.51,1566.46 3545.25,1529.21 3499.36,1529.21C3474.51,1529.21 3452.19,1540.14 3436.95,1557.44C3431.48,1563.66 3422.85,1566.04 3414.97,1563.52C3407.08,1560.99 3401.44,1554.04 3400.59,1545.81C3393.57,1477.51 3335.78,1424.17 3265.65,1424.17C3190.77,1424.17 3129.99,1484.96 3129.99,1559.84C3129.99,1571.09 3131.36,1582.03 3133.94,1592.49C3135.89,1600.35 3133.1,1608.62 3126.8,1613.71C3120.5,1618.79 3111.82,1619.76 3104.55,1616.2C3099.01,1613.48 3092.79,1611.97 3086.22,1611.97C3063.17,1611.97 3044.45,1630.68 3044.45,1653.73C3044.45,1676.69 3063.02,1695.35 3085.95,1695.5L3086.22,1695.5L3499.36,1695.5ZM3493.61,1508.53C3493.81,1508.08 3494.05,1507.64 3494.32,1507.21C3512.33,1478.64 3508.89,1440.38 3484.01,1415.5C3455.15,1386.63 3408.28,1386.63 3379.41,1415.5C3372.7,1422.21 3367.54,1429.89 3363.95,1438.1C3395.5,1463.62 3416.94,1501.13 3421.32,1543.67C3439.19,1523.38 3464.86,1510.1 3493.61,1508.53Z"/>
        <g transform="matrix(0.586967,0.586967,-0.586967,0.586967,2724.76,964.683)">
            <path d="M1081.45,314.717L1081.45,255.118C1081.45,248.192 1075.82,242.569 1068.9,242.569C1061.97,242.569 1056.35,248.192 1056.35,255.118L1056.35,314.717C1056.35,321.642 1061.97,327.265 1068.9,327.265C1075.82,327.265 1081.45,321.642 1081.45,314.717Z"/>
        </g>
        <g transform="matrix(0.586967,0.586967,-0.586967,0.586967,2912.55,964.683)">
            <path d="M1081.45,314.717L1081.45,255.118C1081.45,248.192 1075.82,242.569 1068.9,242.569C1061.97,242.569 1056.35,248.192 1056.35,255.118L1056.35,314.717C1056.35,321.642 1061.97,327.265 1068.9,327.265C1075.82,327.265 1081.45,321.642 1081.45,314.717Z"/>
        </g>
        <g transform="matrix(1.75887,1.75887,-1.75887,1.75887,1833.68,-586.933)">
            <path d="M1073.09,314.717L1073.09,255.118C1073.09,252.807 1071.21,250.93 1068.9,250.93C1066.59,250.93 1064.71,252.807 1064.71,255.118L1064.71,314.717C1064.71,317.028 1066.59,318.904 1068.9,318.904C1071.21,318.904 1073.09,317.028 1073.09,314.717Z"/>
        </g>
        <g transform="matrix(1.75887,1.75887,-1.75887,1.75887,1897.44,-586.933)">
            <path d="M1073.09,314.717L1073.09,255.118C1073.09,252.807 1071.21,250.93 1068.9,250.93C1066.59,250.93 1064.71,252.807 1064.71,255.118L1064.71,314.717C1064.71,317.028 1066.59,318.904 1068.9,318.904C1071.21,318.904 1073.09,317.028 1073.09,314.717Z"/>
        </g>
    </g>
</svg>
