<?xml version="1.0" encoding="UTF-8" standalone="no"?>
<!DOCTYPE svg PUBLIC "-//W3C//DTD SVG 1.1//EN" "http://www.w3.org/Graphics/SVG/1.1/DTD/svg11.dtd">
<svg width="100%" height="100%" viewBox="0 0 580 344" version="1.1" xmlns="http://www.w3.org/2000/svg" xmlns:xlink="http://www.w3.org/1999/xlink" xml:space="preserve" xmlns:serif="http://www.serif.com/" style="fill-rule:evenodd;clip-rule:evenodd;stroke-linejoin:round;stroke-miterlimit:2;">
    <g transform="matrix(1,0,0,1,-791.496,-1435.62)">
        <g transform="matrix(1,0,0,1,768.492,0)">
            <path d="M346.022,1488.53C350.492,1479.44 356.504,1470.92 364.06,1463.36C401.056,1426.37 461.129,1426.37 498.125,1463.36C527.607,1492.85 533.591,1536.98 516.086,1572.41C565.234,1580.68 602.722,1623.47 602.722,1674.95C602.722,1732.34 556.131,1778.93 498.744,1778.93L85.602,1778.93L85.197,1778.93C50.835,1778.71 23.004,1750.75 23.004,1716.33C23.004,1681.78 51.053,1653.73 85.602,1653.73C95.466,1653.73 104.8,1656.02 113.101,1660.09C110.117,1648.03 108.533,1635.41 108.533,1622.43C108.533,1536.06 178.657,1465.94 265.029,1465.94C294.668,1465.94 322.393,1474.19 346.022,1488.53ZM498.744,1758.1C544.633,1758.1 581.889,1720.84 581.889,1674.95C581.889,1629.06 544.633,1591.81 498.744,1591.81C473.892,1591.81 451.575,1602.74 436.333,1620.04C430.862,1626.26 422.231,1628.64 414.347,1626.11C406.464,1623.59 400.822,1616.64 399.975,1608.4C392.952,1540.1 335.166,1486.77 265.029,1486.77C190.155,1486.77 129.366,1547.56 129.366,1622.43C129.366,1633.69 130.737,1644.63 133.325,1655.09C135.27,1662.95 132.484,1671.22 126.181,1676.31C119.878,1681.39 111.2,1682.36 103.929,1678.8C98.397,1676.08 92.175,1674.57 85.602,1674.57C62.551,1674.57 43.837,1693.28 43.837,1716.33C43.837,1739.29 62.404,1757.95 85.326,1758.1L85.602,1758.1L498.744,1758.1ZM492.991,1571.13C493.191,1570.68 493.426,1570.24 493.696,1569.81C511.713,1541.24 508.276,1502.98 483.393,1478.09C454.528,1449.23 407.657,1449.23 378.792,1478.09C372.079,1484.81 366.925,1492.49 363.336,1500.7C394.883,1526.22 416.325,1563.73 420.699,1606.27C438.575,1585.98 464.236,1572.7 492.991,1571.13Z"/>
        </g>
    </g>
</svg>
