<?xml version="1.0" encoding="UTF-8" standalone="no"?>
<!DOCTYPE svg PUBLIC "-//W3C//DTD SVG 1.1//EN" "http://www.w3.org/Graphics/SVG/1.1/DTD/svg11.dtd">
<svg width="100%" height="100%" viewBox="0 0 580 459" version="1.1" xmlns="http://www.w3.org/2000/svg" xmlns:xlink="http://www.w3.org/1999/xlink" xml:space="preserve" xmlns:serif="http://www.serif.com/" style="fill-rule:evenodd;clip-rule:evenodd;stroke-linejoin:round;stroke-miterlimit:2;">
    <g transform="matrix(1,0,0,1,-0.004,0.002)">
        <g transform="matrix(1,0,0,1,-2277.37,-1403.34)">
            <g transform="matrix(0.586967,0.586967,-0.586967,0.586967,1995.77,969.819)">
                <path d="M1081.45,314.717L1081.45,255.118C1081.45,248.192 1075.82,242.569 1068.9,242.569C1061.97,242.569 1056.35,248.192 1056.35,255.118L1056.35,314.717C1056.35,321.642 1061.97,327.265 1068.9,327.265C1075.82,327.265 1081.45,321.642 1081.45,314.717Z"/>
            </g>
        </g>
        <g transform="matrix(1,0,0,1,-2277.37,-1403.34)">
            <g transform="matrix(0.586967,0.586967,-0.586967,0.586967,2183.56,969.819)">
                <path d="M1081.45,314.717L1081.45,255.118C1081.45,248.192 1075.82,242.569 1068.9,242.569C1061.97,242.569 1056.35,248.192 1056.35,255.118L1056.35,314.717C1056.35,321.642 1061.97,327.265 1068.9,327.265C1075.82,327.265 1081.45,321.642 1081.45,314.717Z"/>
            </g>
        </g>
        <g transform="matrix(1,0,0,1,-2277.37,-1403.34)">
            <g transform="matrix(1.75887,1.75887,-1.75887,1.75887,1104.7,-581.798)">
                <path d="M1073.09,314.717L1073.09,255.118C1073.09,252.807 1071.21,250.93 1068.9,250.93C1066.59,250.93 1064.71,252.807 1064.71,255.118L1064.71,314.717C1064.71,317.028 1066.59,318.904 1068.9,318.904C1071.21,318.904 1073.09,317.028 1073.09,314.717Z"/>
            </g>
        </g>
        <g transform="matrix(1,0,0,1,-2277.37,-1403.34)">
            <g transform="matrix(1.75887,1.75887,-1.75887,1.75887,1168.45,-581.798)">
                <path d="M1073.09,314.717L1073.09,255.118C1073.09,252.807 1071.21,250.93 1068.9,250.93C1066.59,250.93 1064.71,252.807 1064.71,255.118L1064.71,314.717C1064.71,317.028 1066.59,318.904 1068.9,318.904C1071.21,318.904 1073.09,317.028 1073.09,314.717Z"/>
            </g>
        </g>
        <g transform="matrix(1,0,0,1,-2277.37,-1403.34)">
            <g transform="matrix(1,0,0,1,725.894,960.425)">
                <path d="M2027.22,755.906L1614.08,755.906L1613.67,755.904C1579.31,755.687 1551.48,727.721 1551.48,693.307C1551.48,658.758 1579.53,630.709 1614.08,630.709C1623.94,630.709 1633.27,632.995 1641.58,637.066C1638.59,625.006 1637.01,612.391 1637.01,599.409C1637.01,513.037 1707.13,442.913 1793.5,442.913C1874.42,442.913 1941.07,504.453 1949.17,583.249C1968.23,561.61 1996.14,547.948 2027.22,547.948C2084.61,547.948 2131.2,594.54 2131.2,651.927C2131.2,709.314 2084.61,755.906 2027.22,755.906ZM2027.22,735.072C2073.11,735.072 2110.36,697.816 2110.36,651.927C2110.36,606.038 2073.11,568.782 2027.22,568.782C2002.37,568.782 1980.05,579.714 1964.81,597.019C1959.34,603.231 1950.71,605.615 1942.82,603.091C1934.94,600.567 1929.3,593.615 1928.45,585.38C1921.43,517.079 1863.64,463.747 1793.5,463.747C1718.63,463.747 1657.84,524.535 1657.84,599.409C1657.84,610.666 1659.21,621.605 1661.8,632.062C1663.75,639.922 1660.96,648.198 1654.65,653.282C1648.35,658.366 1639.67,659.336 1632.4,655.771C1626.87,653.059 1620.65,651.542 1614.08,651.542C1591.03,651.542 1572.31,670.256 1572.31,693.307C1572.31,716.267 1590.88,734.926 1613.8,735.071L1614.08,735.072L2027.22,735.072Z"/>
            </g>
        </g>
    </g>
</svg>
