<?xml version="1.0" encoding="UTF-8" standalone="no"?>
<!DOCTYPE svg PUBLIC "-//W3C//DTD SVG 1.1//EN" "http://www.w3.org/Graphics/SVG/1.1/DTD/svg11.dtd">
<svg width="100%" height="100%" viewBox="0 0 580 459" version="1.1" xmlns="http://www.w3.org/2000/svg" xmlns:xlink="http://www.w3.org/1999/xlink" xml:space="preserve" xmlns:serif="http://www.serif.com/" style="fill-rule:evenodd;clip-rule:evenodd;stroke-linejoin:round;stroke-miterlimit:2;">
    <g transform="matrix(1,0,0,1,-4558.57,-1403.34)">
        <g transform="matrix(1,0,0,1,3007.09,960.425)">
            <path d="M2027.22,755.906L1614.08,755.906L1613.67,755.904C1579.31,755.687 1551.48,727.721 1551.48,693.307C1551.48,658.758 1579.53,630.709 1614.08,630.709C1623.94,630.709 1633.27,632.995 1641.58,637.066C1638.59,625.006 1637.01,612.391 1637.01,599.409C1637.01,513.037 1707.13,442.913 1793.5,442.913C1874.42,442.913 1941.07,504.453 1949.17,583.249C1968.23,561.61 1996.14,547.948 2027.22,547.948C2084.61,547.948 2131.2,594.54 2131.2,651.927C2131.2,709.314 2084.61,755.906 2027.22,755.906ZM2027.22,735.072C2073.11,735.072 2110.36,697.816 2110.36,651.927C2110.36,606.038 2073.11,568.782 2027.22,568.782C2002.37,568.782 1980.05,579.714 1964.81,597.019C1959.34,603.231 1950.71,605.615 1942.82,603.091C1934.94,600.567 1929.3,593.615 1928.45,585.38C1921.43,517.079 1863.64,463.747 1793.5,463.747C1718.63,463.747 1657.84,524.535 1657.84,599.409C1657.84,610.666 1659.21,621.605 1661.8,632.062C1663.75,639.922 1660.96,648.198 1654.65,653.282C1648.35,658.366 1639.67,659.336 1632.4,655.771C1626.87,653.059 1620.65,651.542 1614.08,651.542C1591.03,651.542 1572.31,670.256 1572.31,693.307C1572.31,716.267 1590.88,734.926 1613.8,735.071L1614.08,735.072L2027.22,735.072Z"/>
        </g>
        <g transform="matrix(1,0,0,1,-18.778,1159.69)">
            <circle cx="4774.5" cy="616.243" r="17.491"/>
        </g>
        <g transform="matrix(1,0,0,1,-18.778,1159.69)">
            <path d="M4774.5,598.751C4784.15,598.751 4791.99,606.589 4791.99,616.243C4791.99,625.896 4784.15,633.734 4774.5,633.734C4764.84,633.734 4757.01,625.896 4757.01,616.243C4757.01,606.589 4764.84,598.751 4774.5,598.751ZM4774.5,619.585C4772.65,619.585 4771.15,618.087 4771.15,616.243C4771.15,614.398 4772.65,612.9 4774.5,612.9C4776.34,612.9 4777.84,614.398 4777.84,616.243C4777.84,618.087 4776.34,619.585 4774.5,619.585Z" style="fill:none;"/>
        </g>
        <g transform="matrix(1,0,0,1,77.4365,1159.69)">
            <circle cx="4774.5" cy="616.243" r="17.491"/>
        </g>
        <g transform="matrix(1,0,0,1,77.4365,1159.69)">
            <path d="M4774.5,598.751C4784.15,598.751 4791.99,606.589 4791.99,616.243C4791.99,625.896 4784.15,633.734 4774.5,633.734C4764.84,633.734 4757.01,625.896 4757.01,616.243C4757.01,606.589 4764.84,598.751 4774.5,598.751ZM4774.5,619.585C4772.65,619.585 4771.15,618.087 4771.15,616.243C4771.15,614.398 4772.65,612.9 4774.5,612.9C4776.34,612.9 4777.84,614.398 4777.84,616.243C4777.84,618.087 4776.34,619.585 4774.5,619.585Z" style="fill:none;"/>
        </g>
        <g transform="matrix(1,0,0,1,168.017,1159.69)">
            <circle cx="4774.5" cy="616.243" r="17.491"/>
        </g>
        <g transform="matrix(1,0,0,1,168.017,1159.69)">
            <path d="M4774.5,598.751C4784.15,598.751 4791.99,606.589 4791.99,616.243C4791.99,625.896 4784.15,633.734 4774.5,633.734C4764.84,633.734 4757.01,625.896 4757.01,616.243C4757.01,606.589 4764.84,598.751 4774.5,598.751ZM4774.5,619.585C4772.65,619.585 4771.15,618.087 4771.15,616.243C4771.15,614.398 4772.65,612.9 4774.5,612.9C4776.34,612.9 4777.84,614.398 4777.84,616.243C4777.84,618.087 4776.34,619.585 4774.5,619.585Z" style="fill:none;"/>
        </g>
        <g transform="matrix(1,0,0,1,29.6461,1228.28)">
            <circle cx="4774.5" cy="616.243" r="17.491"/>
        </g>
        <g transform="matrix(1,0,0,1,29.6461,1228.28)">
            <path d="M4774.5,598.751C4784.15,598.751 4791.99,606.589 4791.99,616.243C4791.99,625.896 4784.15,633.734 4774.5,633.734C4764.84,633.734 4757.01,625.896 4757.01,616.243C4757.01,606.589 4764.84,598.751 4774.5,598.751ZM4774.5,619.585C4772.65,619.585 4771.15,618.087 4771.15,616.243C4771.15,614.398 4772.65,612.9 4774.5,612.9C4776.34,612.9 4777.84,614.398 4777.84,616.243C4777.84,618.087 4776.34,619.585 4774.5,619.585Z" style="fill:none;"/>
        </g>
        <g transform="matrix(1,0,0,1,-64.8023,1228.28)">
            <circle cx="4774.5" cy="616.243" r="17.491"/>
        </g>
        <g transform="matrix(1,0,0,1,-64.8023,1228.28)">
            <path d="M4774.5,598.751C4784.15,598.751 4791.99,606.589 4791.99,616.243C4791.99,625.896 4784.15,633.734 4774.5,633.734C4764.84,633.734 4757.01,625.896 4757.01,616.243C4757.01,606.589 4764.84,598.751 4774.5,598.751ZM4774.5,619.585C4772.65,619.585 4771.15,618.087 4771.15,616.243C4771.15,614.398 4772.65,612.9 4774.5,612.9C4776.34,612.9 4777.84,614.398 4777.84,616.243C4777.84,618.087 4776.34,619.585 4774.5,619.585Z" style="fill:none;"/>
        </g>
        <g transform="matrix(1,0,0,1,121.227,1228.28)">
            <circle cx="4774.5" cy="616.243" r="17.491"/>
        </g>
        <g transform="matrix(1,0,0,1,121.227,1228.28)">
            <path d="M4774.5,598.751C4784.15,598.751 4791.99,606.589 4791.99,616.243C4791.99,625.896 4784.15,633.734 4774.5,633.734C4764.84,633.734 4757.01,625.896 4757.01,616.243C4757.01,606.589 4764.84,598.751 4774.5,598.751ZM4774.5,619.585C4772.65,619.585 4771.15,618.087 4771.15,616.243C4771.15,614.398 4772.65,612.9 4774.5,612.9C4776.34,612.9 4777.84,614.398 4777.84,616.243C4777.84,618.087 4776.34,619.585 4774.5,619.585Z" style="fill:none;"/>
        </g>
    </g>
</svg>
