<?xml version="1.0" encoding="UTF-8" standalone="no"?>
<!DOCTYPE svg PUBLIC "-//W3C//DTD SVG 1.1//EN" "http://www.w3.org/Graphics/SVG/1.1/DTD/svg11.dtd">
<svg width="100%" height="100%" viewBox="0 0 580 500" version="1.1" xmlns="http://www.w3.org/2000/svg" xmlns:xlink="http://www.w3.org/1999/xlink" xml:space="preserve" xmlns:serif="http://www.serif.com/" style="fill-rule:evenodd;clip-rule:evenodd;stroke-linejoin:round;stroke-miterlimit:2;">
    <g transform="matrix(1,0,0,1,-3808.66,-1403.34)">
        <path d="M4024.9,1716.33L3871.26,1716.33L3870.85,1716.33C3836.49,1716.11 3808.66,1688.15 3808.66,1653.73C3808.66,1619.18 3836.71,1591.13 3871.26,1591.13C3881.12,1591.13 3890.46,1593.42 3898.76,1597.49C3895.77,1585.43 3894.19,1572.82 3894.19,1559.84C3894.19,1473.46 3964.31,1403.34 4050.69,1403.34C4131.6,1403.34 4198.25,1464.88 4206.36,1543.67C4225.42,1522.04 4253.32,1508.37 4284.4,1508.37C4341.79,1508.37 4388.38,1554.97 4388.38,1612.35C4388.38,1669.74 4341.79,1716.33 4284.4,1716.33L4155.14,1716.33C4154.99,1716.49 4154.85,1716.63 4154.7,1716.78L4081.86,1787.93L4098.81,1787.91C4103.51,1787.9 4107.64,1791.05 4108.87,1795.59C4110.11,1800.13 4108.15,1804.93 4104.09,1807.31L3943.89,1901.12C3939.73,1903.55 3934.44,1902.81 3931.1,1899.33C3927.77,1895.85 3927.26,1890.53 3929.87,1886.48L3978.86,1810.53L3958.68,1810.62C3954.49,1810.65 3950.7,1808.16 3949.05,1804.31C3947.4,1800.46 3948.22,1796 3951.12,1792.99L4024.9,1716.33ZM4125.35,1716.33L4053.81,1716.33L4053.73,1716.42L3983.23,1789.67L3997.99,1789.6C4004.07,1789.78 4009.04,1794.85 4008.4,1801.08C4008.23,1802.74 4007.64,1804.24 4006.79,1805.66L3971.05,1861.07L4060.32,1808.8L4056.26,1808.8C4052.03,1808.81 4048.2,1806.25 4046.6,1802.32C4045,1798.4 4045.94,1793.89 4048.97,1790.93L4125.35,1716.33ZM4284.4,1695.5C4330.29,1695.5 4367.55,1658.24 4367.55,1612.35C4367.55,1566.46 4330.29,1529.21 4284.4,1529.21C4259.55,1529.21 4237.23,1540.14 4221.99,1557.44C4216.52,1563.66 4207.89,1566.04 4200,1563.52C4192.12,1560.99 4186.48,1554.04 4185.63,1545.81C4178.61,1477.51 4120.82,1424.17 4050.69,1424.17C3975.81,1424.17 3915.02,1484.96 3915.02,1559.84C3915.02,1571.09 3916.39,1582.03 3918.98,1592.49C3920.93,1600.35 3918.14,1608.62 3911.84,1613.71C3905.53,1618.79 3896.86,1619.76 3889.59,1616.2C3884.05,1613.48 3877.83,1611.97 3871.26,1611.97C3848.21,1611.97 3829.49,1630.68 3829.49,1653.73C3829.49,1676.69 3848.06,1695.35 3870.98,1695.5L3871.26,1695.5L4284.4,1695.5Z"/>
    </g>
</svg>
